<mxfile host="Electron" modified="2023-10-23T10:21:47.409Z" agent="Mozilla/5.0 (Macintosh; Intel Mac OS X 10_15_7) AppleWebKit/537.36 (KHTML, like Gecko) draw.io/22.0.2 Chrome/114.0.5735.289 Electron/25.8.4 Safari/537.36" etag="JTfnCyz_W02vDiJplVke" version="22.0.2" type="device" pages="2">
  <diagram name="TaskMenu" id="SfaWyFB-Ww8KDtKe9vJk">
    <mxGraphModel dx="1026" dy="743" grid="1" gridSize="10" guides="1" tooltips="1" connect="1" arrows="1" fold="1" page="1" pageScale="1" pageWidth="827" pageHeight="1169" math="0" shadow="0">
      <root>
        <mxCell id="0" />
        <mxCell id="1" parent="0" />
        <mxCell id="7RoFkBCPdX-VoI3S4C3U-1" style="edgeStyle=orthogonalEdgeStyle;rounded=0;orthogonalLoop=1;jettySize=auto;html=1;exitX=0;exitY=0.5;exitDx=0;exitDy=0;entryX=0.5;entryY=0;entryDx=0;entryDy=0;endArrow=none;endFill=0;" parent="1" source="S4k8SkvojDosibgmcopA-4" target="S4k8SkvojDosibgmcopA-14" edge="1">
          <mxGeometry relative="1" as="geometry" />
        </mxCell>
        <mxCell id="7RoFkBCPdX-VoI3S4C3U-10" style="edgeStyle=orthogonalEdgeStyle;shape=connector;rounded=0;orthogonalLoop=1;jettySize=auto;html=1;exitX=0.5;exitY=1;exitDx=0;exitDy=0;entryX=0.5;entryY=0;entryDx=0;entryDy=0;labelBackgroundColor=default;strokeColor=default;align=center;verticalAlign=middle;fontFamily=Helvetica;fontSize=11;fontColor=default;endArrow=none;endFill=0;" parent="1" source="S4k8SkvojDosibgmcopA-4" target="S4k8SkvojDosibgmcopA-8" edge="1">
          <mxGeometry relative="1" as="geometry" />
        </mxCell>
        <mxCell id="S4k8SkvojDosibgmcopA-4" value="Подписка активна" style="rhombus;whiteSpace=wrap;html=1;" parent="1" vertex="1">
          <mxGeometry x="300" y="220" width="140" height="100" as="geometry" />
        </mxCell>
        <mxCell id="7RoFkBCPdX-VoI3S4C3U-7" style="edgeStyle=orthogonalEdgeStyle;shape=connector;rounded=0;orthogonalLoop=1;jettySize=auto;html=1;exitX=0.5;exitY=1;exitDx=0;exitDy=0;entryX=0.5;entryY=0;entryDx=0;entryDy=0;labelBackgroundColor=default;strokeColor=default;align=center;verticalAlign=middle;fontFamily=Helvetica;fontSize=11;fontColor=default;endArrow=none;endFill=0;" parent="1" source="S4k8SkvojDosibgmcopA-8" target="DgNWlWeVKmmDvKao9T3I-1" edge="1">
          <mxGeometry relative="1" as="geometry" />
        </mxCell>
        <mxCell id="TkJeZevTcF1N_gCMCRTr-3" style="edgeStyle=orthogonalEdgeStyle;shape=connector;rounded=0;orthogonalLoop=1;jettySize=auto;html=1;exitX=0.5;exitY=1;exitDx=0;exitDy=0;entryX=0.5;entryY=0;entryDx=0;entryDy=0;labelBackgroundColor=default;strokeColor=default;align=center;verticalAlign=middle;fontFamily=Helvetica;fontSize=11;fontColor=default;endArrow=none;endFill=0;" parent="1" source="S4k8SkvojDosibgmcopA-8" target="S4k8SkvojDosibgmcopA-21" edge="1">
          <mxGeometry relative="1" as="geometry" />
        </mxCell>
        <mxCell id="TkJeZevTcF1N_gCMCRTr-5" style="edgeStyle=orthogonalEdgeStyle;shape=connector;rounded=0;orthogonalLoop=1;jettySize=auto;html=1;exitX=0.5;exitY=1;exitDx=0;exitDy=0;entryX=0.5;entryY=0;entryDx=0;entryDy=0;labelBackgroundColor=default;strokeColor=default;align=center;verticalAlign=middle;fontFamily=Helvetica;fontSize=11;fontColor=default;endArrow=none;endFill=0;" parent="1" source="S4k8SkvojDosibgmcopA-8" target="TkJeZevTcF1N_gCMCRTr-4" edge="1">
          <mxGeometry relative="1" as="geometry" />
        </mxCell>
        <mxCell id="TkJeZevTcF1N_gCMCRTr-10" style="edgeStyle=orthogonalEdgeStyle;shape=connector;rounded=0;orthogonalLoop=1;jettySize=auto;html=1;exitX=0.5;exitY=1;exitDx=0;exitDy=0;entryX=0.5;entryY=0;entryDx=0;entryDy=0;labelBackgroundColor=default;strokeColor=default;align=center;verticalAlign=middle;fontFamily=Helvetica;fontSize=11;fontColor=default;endArrow=none;endFill=0;" parent="1" edge="1">
          <mxGeometry relative="1" as="geometry">
            <mxPoint x="370" y="417" as="sourcePoint" />
            <mxPoint x="730" y="505" as="targetPoint" />
            <Array as="points">
              <mxPoint x="370" y="487" />
              <mxPoint x="730" y="487" />
            </Array>
          </mxGeometry>
        </mxCell>
        <mxCell id="S4k8SkvojDosibgmcopA-8" value="Выбор пользователя в меню задачи" style="rhombus;whiteSpace=wrap;html=1;" parent="1" vertex="1">
          <mxGeometry x="310" y="340" width="120" height="80" as="geometry" />
        </mxCell>
        <mxCell id="S4k8SkvojDosibgmcopA-14" value="Вывод сообщения о не оплаченной подписке" style="rounded=0;whiteSpace=wrap;html=1;" parent="1" vertex="1">
          <mxGeometry x="10" y="425" width="120" height="80" as="geometry" />
        </mxCell>
        <mxCell id="7RoFkBCPdX-VoI3S4C3U-12" style="edgeStyle=orthogonalEdgeStyle;shape=connector;rounded=0;orthogonalLoop=1;jettySize=auto;html=1;exitX=0.5;exitY=0;exitDx=0;exitDy=0;entryX=0.5;entryY=1;entryDx=0;entryDy=0;labelBackgroundColor=default;strokeColor=default;align=center;verticalAlign=middle;fontFamily=Helvetica;fontSize=11;fontColor=default;endArrow=none;endFill=0;" parent="1" source="S4k8SkvojDosibgmcopA-20" target="S4k8SkvojDosibgmcopA-8" edge="1">
          <mxGeometry relative="1" as="geometry" />
        </mxCell>
        <mxCell id="S4k8SkvojDosibgmcopA-20" value="CreateTask" style="swimlane;whiteSpace=wrap;html=1;" parent="1" vertex="1">
          <mxGeometry x="240" y="555" width="120" height="80" as="geometry" />
        </mxCell>
        <mxCell id="7RoFkBCPdX-VoI3S4C3U-5" style="edgeStyle=orthogonalEdgeStyle;shape=connector;rounded=0;orthogonalLoop=1;jettySize=auto;html=1;exitX=0.5;exitY=1;exitDx=0;exitDy=0;labelBackgroundColor=default;strokeColor=default;align=center;verticalAlign=middle;fontFamily=Helvetica;fontSize=11;fontColor=default;endArrow=none;endFill=0;" parent="1" source="S4k8SkvojDosibgmcopA-21" edge="1">
          <mxGeometry relative="1" as="geometry">
            <mxPoint x="470" y="730" as="targetPoint" />
            <Array as="points">
              <mxPoint x="440" y="730" />
            </Array>
          </mxGeometry>
        </mxCell>
        <mxCell id="S4k8SkvojDosibgmcopA-21" value="DeleteTask" style="swimlane;whiteSpace=wrap;html=1;" parent="1" vertex="1">
          <mxGeometry x="380" y="555" width="120" height="80" as="geometry" />
        </mxCell>
        <mxCell id="0m2E6achtuGmkCwlAiac-3" style="edgeStyle=orthogonalEdgeStyle;shape=connector;rounded=0;orthogonalLoop=1;jettySize=auto;html=1;exitX=0.5;exitY=1;exitDx=0;exitDy=0;entryX=0.5;entryY=0;entryDx=0;entryDy=0;labelBackgroundColor=default;strokeColor=default;align=center;verticalAlign=middle;fontFamily=Helvetica;fontSize=11;fontColor=default;endArrow=none;endFill=0;" parent="1" source="PpFJJ4qEioCNqUixtcG1-1" target="S4k8SkvojDosibgmcopA-4" edge="1">
          <mxGeometry relative="1" as="geometry" />
        </mxCell>
        <mxCell id="PpFJJ4qEioCNqUixtcG1-1" value="Получаем Активность подписки из базы данных" style="shape=process;whiteSpace=wrap;html=1;backgroundOutline=1;" parent="1" vertex="1">
          <mxGeometry x="310" y="110" width="120" height="80" as="geometry" />
        </mxCell>
        <mxCell id="0m2E6achtuGmkCwlAiac-2" style="edgeStyle=orthogonalEdgeStyle;rounded=0;orthogonalLoop=1;jettySize=auto;html=1;exitX=0.5;exitY=0.5;exitDx=0;exitDy=15;exitPerimeter=0;entryX=0.5;entryY=0;entryDx=0;entryDy=0;endArrow=none;endFill=0;" parent="1" source="0m2E6achtuGmkCwlAiac-1" target="PpFJJ4qEioCNqUixtcG1-1" edge="1">
          <mxGeometry relative="1" as="geometry" />
        </mxCell>
        <mxCell id="0m2E6achtuGmkCwlAiac-1" value="Начало" style="html=1;dashed=0;whiteSpace=wrap;shape=mxgraph.dfd.start" parent="1" vertex="1">
          <mxGeometry x="330" y="50" width="80" height="30" as="geometry" />
        </mxCell>
        <mxCell id="TkJeZevTcF1N_gCMCRTr-12" style="edgeStyle=orthogonalEdgeStyle;shape=connector;rounded=0;orthogonalLoop=1;jettySize=auto;html=1;exitX=0.5;exitY=1;exitDx=0;exitDy=0;labelBackgroundColor=default;strokeColor=default;align=center;verticalAlign=middle;fontFamily=Helvetica;fontSize=11;fontColor=default;endArrow=none;endFill=0;" parent="1" source="0m2E6achtuGmkCwlAiac-7" edge="1">
          <mxGeometry relative="1" as="geometry">
            <mxPoint x="730.2" y="730" as="targetPoint" />
          </mxGeometry>
        </mxCell>
        <mxCell id="0m2E6achtuGmkCwlAiac-7" value="Выводим сообщение о задачах пользователя" style="rounded=0;whiteSpace=wrap;html=1;fontFamily=Helvetica;fontSize=11;fontColor=default;" parent="1" vertex="1">
          <mxGeometry x="670" y="610" width="120" height="80" as="geometry" />
        </mxCell>
        <mxCell id="0m2E6achtuGmkCwlAiac-11" value="Создать&lt;br&gt;задачу" style="text;html=1;strokeColor=none;fillColor=none;align=center;verticalAlign=middle;whiteSpace=wrap;rounded=0;fontSize=11;fontFamily=Helvetica;fontColor=default;" parent="1" vertex="1">
          <mxGeometry x="286" y="445" width="60" height="30" as="geometry" />
        </mxCell>
        <mxCell id="0m2E6achtuGmkCwlAiac-12" value="удалить задачу" style="text;html=1;strokeColor=none;fillColor=none;align=center;verticalAlign=middle;whiteSpace=wrap;rounded=0;fontSize=11;fontFamily=Helvetica;fontColor=default;" parent="1" vertex="1">
          <mxGeometry x="400" y="445" width="60" height="30" as="geometry" />
        </mxCell>
        <mxCell id="0m2E6achtuGmkCwlAiac-13" value="Информация&amp;nbsp;&lt;br&gt;о задачах" style="text;html=1;strokeColor=none;fillColor=none;align=center;verticalAlign=middle;whiteSpace=wrap;rounded=0;fontSize=11;fontFamily=Helvetica;fontColor=default;" parent="1" vertex="1">
          <mxGeometry x="670" y="445" width="60" height="30" as="geometry" />
        </mxCell>
        <mxCell id="TkJeZevTcF1N_gCMCRTr-11" style="edgeStyle=orthogonalEdgeStyle;shape=connector;rounded=0;orthogonalLoop=1;jettySize=auto;html=1;exitX=0.5;exitY=1;exitDx=0;exitDy=0;entryX=0.5;entryY=0;entryDx=0;entryDy=0;labelBackgroundColor=default;strokeColor=default;align=center;verticalAlign=middle;fontFamily=Helvetica;fontSize=11;fontColor=default;endArrow=none;endFill=0;" parent="1" source="0m2E6achtuGmkCwlAiac-14" target="0m2E6achtuGmkCwlAiac-7" edge="1">
          <mxGeometry relative="1" as="geometry" />
        </mxCell>
        <mxCell id="0m2E6achtuGmkCwlAiac-14" value="Получаем задачи пользователя из базы данных&amp;nbsp;" style="shape=process;whiteSpace=wrap;html=1;backgroundOutline=1;fontFamily=Helvetica;fontSize=11;fontColor=default;" parent="1" vertex="1">
          <mxGeometry x="670" y="505" width="120" height="80" as="geometry" />
        </mxCell>
        <mxCell id="0m2E6achtuGmkCwlAiac-15" value="Конец" style="html=1;dashed=0;whiteSpace=wrap;shape=mxgraph.dfd.start" parent="1" vertex="1">
          <mxGeometry x="330" y="790" width="80" height="30" as="geometry" />
        </mxCell>
        <mxCell id="0m2E6achtuGmkCwlAiac-24" value="Назад в главное меню" style="text;html=1;strokeColor=none;fillColor=none;align=center;verticalAlign=middle;whiteSpace=wrap;rounded=0;fontSize=11;fontFamily=Helvetica;fontColor=default;" parent="1" vertex="1">
          <mxGeometry x="160" y="445" width="80" height="30" as="geometry" />
        </mxCell>
        <mxCell id="5m1P1X9b7d-5ygvGVh7s-1" value="активна" style="text;html=1;strokeColor=none;fillColor=none;align=center;verticalAlign=middle;whiteSpace=wrap;rounded=0;fontSize=11;fontFamily=Helvetica;fontColor=default;" parent="1" vertex="1">
          <mxGeometry x="310" y="310" width="60" height="30" as="geometry" />
        </mxCell>
        <mxCell id="5m1P1X9b7d-5ygvGVh7s-2" value="не активна" style="text;html=1;strokeColor=none;fillColor=none;align=center;verticalAlign=middle;whiteSpace=wrap;rounded=0;fontSize=11;fontFamily=Helvetica;fontColor=default;" parent="1" vertex="1">
          <mxGeometry x="240" y="240" width="60" height="30" as="geometry" />
        </mxCell>
        <mxCell id="DgNWlWeVKmmDvKao9T3I-1" value="Menu" style="swimlane;whiteSpace=wrap;html=1;" parent="1" vertex="1">
          <mxGeometry x="100" y="555" width="120" height="80" as="geometry" />
        </mxCell>
        <mxCell id="7RoFkBCPdX-VoI3S4C3U-2" style="edgeStyle=orthogonalEdgeStyle;shape=connector;rounded=0;orthogonalLoop=1;jettySize=auto;html=1;exitX=0.5;exitY=1;exitDx=0;exitDy=0;entryX=0.5;entryY=0.5;entryDx=0;entryDy=-15;entryPerimeter=0;labelBackgroundColor=default;strokeColor=default;align=center;verticalAlign=middle;fontFamily=Helvetica;fontSize=11;fontColor=default;endArrow=none;endFill=0;" parent="1" source="DgNWlWeVKmmDvKao9T3I-1" target="0m2E6achtuGmkCwlAiac-15" edge="1">
          <mxGeometry relative="1" as="geometry">
            <Array as="points">
              <mxPoint x="160" y="760" />
              <mxPoint x="370" y="760" />
            </Array>
          </mxGeometry>
        </mxCell>
        <mxCell id="wu1sH1Vo3paFNtO2GF-Q-1" style="edgeStyle=orthogonalEdgeStyle;rounded=0;orthogonalLoop=1;jettySize=auto;html=1;endArrow=none;endFill=0;exitX=0.5;exitY=1;exitDx=0;exitDy=0;" parent="1" source="S4k8SkvojDosibgmcopA-14" edge="1">
          <mxGeometry relative="1" as="geometry">
            <mxPoint x="70" y="510" as="sourcePoint" />
            <mxPoint x="160" y="760" as="targetPoint" />
            <Array as="points">
              <mxPoint x="70" y="760" />
            </Array>
          </mxGeometry>
        </mxCell>
        <mxCell id="TkJeZevTcF1N_gCMCRTr-13" style="edgeStyle=orthogonalEdgeStyle;shape=connector;rounded=0;orthogonalLoop=1;jettySize=auto;html=1;exitX=0.5;exitY=1;exitDx=0;exitDy=0;labelBackgroundColor=default;strokeColor=default;align=center;verticalAlign=middle;fontFamily=Helvetica;fontSize=11;fontColor=default;endArrow=none;endFill=0;" parent="1" source="TkJeZevTcF1N_gCMCRTr-4" edge="1">
          <mxGeometry relative="1" as="geometry">
            <mxPoint x="579.8" y="730" as="targetPoint" />
          </mxGeometry>
        </mxCell>
        <mxCell id="TkJeZevTcF1N_gCMCRTr-4" value="ActiveTask" style="swimlane;whiteSpace=wrap;html=1;startSize=23;" parent="1" vertex="1">
          <mxGeometry x="520" y="555" width="120" height="80" as="geometry" />
        </mxCell>
        <mxCell id="TkJeZevTcF1N_gCMCRTr-14" value="остановить/восстановить поиск" style="text;html=1;strokeColor=none;fillColor=none;align=center;verticalAlign=middle;whiteSpace=wrap;rounded=0;fontSize=11;fontFamily=Helvetica;fontColor=default;" parent="1" vertex="1">
          <mxGeometry x="540" y="445" width="60" height="30" as="geometry" />
        </mxCell>
        <mxCell id="Jq90YUlXiH60j-D-QwzL-1" value="" style="endArrow=classic;html=1;rounded=0;exitX=0.5;exitY=1;exitDx=0;exitDy=0;entryX=1;entryY=0.5;entryDx=0;entryDy=0;" parent="1" source="S4k8SkvojDosibgmcopA-20" target="5m1P1X9b7d-5ygvGVh7s-1" edge="1">
          <mxGeometry width="50" height="50" relative="1" as="geometry">
            <mxPoint x="260" y="740" as="sourcePoint" />
            <mxPoint x="310" y="690" as="targetPoint" />
            <Array as="points">
              <mxPoint x="300" y="730" />
              <mxPoint x="810" y="730" />
              <mxPoint x="810" y="325" />
            </Array>
          </mxGeometry>
        </mxCell>
      </root>
    </mxGraphModel>
  </diagram>
  <diagram id="g4DLwBjqmLR3lGpW0vK0" name="TaskMenu_N_SH">
    <mxGraphModel dx="1026" dy="743" grid="1" gridSize="10" guides="1" tooltips="1" connect="1" arrows="1" fold="1" page="1" pageScale="1" pageWidth="827" pageHeight="1169" math="0" shadow="0">
      <root>
        <mxCell id="0" />
        <mxCell id="1" parent="0" />
        <mxCell id="SiBecvUQDcYWsc2rEsGT-1" value="Назад в&amp;nbsp;&lt;br&gt;главное&lt;br&gt;меню" style="rounded=0;whiteSpace=wrap;html=1;fontFamily=Helvetica;fontSize=11;fontColor=default;" parent="1" vertex="1">
          <mxGeometry x="390" y="200" width="60" height="60" as="geometry" />
        </mxCell>
        <mxCell id="Q5nnPWPALyb3Cwcq5aP5-3" value="&lt;br&gt;Информация&amp;nbsp; о задачах" style="rounded=0;whiteSpace=wrap;html=1;" parent="1" vertex="1">
          <mxGeometry x="450" y="200" width="70" height="60" as="geometry" />
        </mxCell>
        <mxCell id="Q5nnPWPALyb3Cwcq5aP5-2" value="&lt;br&gt;&lt;br&gt;Удалить" style="rounded=0;whiteSpace=wrap;html=1;" parent="1" vertex="1">
          <mxGeometry x="520" y="200" width="60" height="60" as="geometry" />
        </mxCell>
        <mxCell id="Q5nnPWPALyb3Cwcq5aP5-1" value="&lt;br&gt;&lt;br&gt;Создать" style="rounded=0;whiteSpace=wrap;html=1;" parent="1" vertex="1">
          <mxGeometry x="580" y="200" width="60" height="60" as="geometry" />
        </mxCell>
        <mxCell id="4w-gVdyFm-MiipMDZAjR-5" value="&lt;br&gt;&lt;br&gt;Нет" style="rounded=0;whiteSpace=wrap;html=1;" parent="1" vertex="1">
          <mxGeometry x="320" y="140" width="320" height="60" as="geometry" />
        </mxCell>
        <mxCell id="4w-gVdyFm-MiipMDZAjR-4" value="&lt;br&gt;&lt;br&gt;Да" style="rounded=0;whiteSpace=wrap;html=1;" parent="1" vertex="1">
          <mxGeometry x="240" y="120" width="150" height="80" as="geometry" />
        </mxCell>
        <mxCell id="V7WKhgz6_HyLqwS9NEBN-1" value="TaskMenu" style="rounded=0;whiteSpace=wrap;html=1;" parent="1" vertex="1">
          <mxGeometry x="240" y="40" width="400" height="40" as="geometry" />
        </mxCell>
        <mxCell id="4w-gVdyFm-MiipMDZAjR-1" value="Получаем данные пользователя из базы данных" style="rounded=0;whiteSpace=wrap;html=1;" parent="1" vertex="1">
          <mxGeometry x="240" y="80" width="400" height="40" as="geometry" />
        </mxCell>
        <mxCell id="4w-gVdyFm-MiipMDZAjR-2" value="" style="verticalLabelPosition=bottom;verticalAlign=top;html=1;shape=mxgraph.basic.orthogonal_triangle;direction=west;" parent="1" vertex="1">
          <mxGeometry x="240" y="120" width="400" height="80" as="geometry" />
        </mxCell>
        <mxCell id="4w-gVdyFm-MiipMDZAjR-6" value="Активна ли подписка у пользователя" style="text;html=1;strokeColor=none;fillColor=none;align=center;verticalAlign=middle;whiteSpace=wrap;rounded=0;" parent="1" vertex="1">
          <mxGeometry x="460" y="130" width="140" height="30" as="geometry" />
        </mxCell>
        <mxCell id="cTXx3XzjXi1MxUr-8-QX-1" value="Вывод сообщения о не оплаченной подписке" style="rounded=0;whiteSpace=wrap;html=1;" parent="1" vertex="1">
          <mxGeometry x="240" y="200" width="150" height="120" as="geometry" />
        </mxCell>
        <mxCell id="5XmxfeUv8gHpQev6KjT1-1" value="" style="verticalLabelPosition=bottom;verticalAlign=top;html=1;shape=mxgraph.basic.orthogonal_triangle;direction=west;" parent="1" vertex="1">
          <mxGeometry x="390" y="200" width="250" height="40" as="geometry" />
        </mxCell>
        <mxCell id="Q5nnPWPALyb3Cwcq5aP5-4" value="Выводим информацию о задачах" style="rounded=0;whiteSpace=wrap;html=1;" parent="1" vertex="1">
          <mxGeometry x="450" y="260" width="70" height="60" as="geometry" />
        </mxCell>
        <mxCell id="Q5nnPWPALyb3Cwcq5aP5-5" value="DeleteTask" style="rounded=0;whiteSpace=wrap;html=1;" parent="1" vertex="1">
          <mxGeometry x="520" y="260" width="60" height="60" as="geometry" />
        </mxCell>
        <mxCell id="Q5nnPWPALyb3Cwcq5aP5-6" value="CreateTask" style="rounded=0;whiteSpace=wrap;html=1;" parent="1" vertex="1">
          <mxGeometry x="580" y="260" width="60" height="60" as="geometry" />
        </mxCell>
        <mxCell id="hzdXIX-X6nHAf5NeGZGP-1" value="Выбор&lt;br&gt;пользователя" style="text;html=1;strokeColor=none;fillColor=none;align=center;verticalAlign=middle;whiteSpace=wrap;rounded=0;" parent="1" vertex="1">
          <mxGeometry x="570" y="200" width="60" height="30" as="geometry" />
        </mxCell>
        <mxCell id="wJSud7ATXrU_PAHeKIFs-1" value="Вывод клавиатуры главного меню" style="rounded=0;whiteSpace=wrap;html=1;fontFamily=Helvetica;fontSize=11;fontColor=default;" parent="1" vertex="1">
          <mxGeometry x="390" y="260" width="60" height="60" as="geometry" />
        </mxCell>
      </root>
    </mxGraphModel>
  </diagram>
</mxfile>
